<?xml version="1.0" encoding="utf-8"?>
<!-- Generator: Adobe Illustrator 19.2.1, SVG Export Plug-In . SVG Version: 6.00 Build 0)  -->
<svg version="1.1" id="layer" xmlns="http://www.w3.org/2000/svg" xmlns:xlink="http://www.w3.org/1999/xlink" x="0px" y="0px"
	 viewBox="0 0 652 652" style="enable-background:new 0 0 652 652;" xml:space="preserve">
<style type="text/css">
	.st0{fill:#FFFFFF;}
	.st1{fill:#ED1B2E;}
</style>
<g>
	<path class="st0" d="M251.3,233.4c-2.5-4.5-7.3-7.1-13.1-7.1h-86.7c0,0-5.3-11.5-20.5-11.5c-15,0-21.3,11.2-21.4,11.5h-0.2H35.6
		c-5.7,0-10.5,2.5-13.1,6.9c-2.6,4.4-2.5,9.8,0.3,14.8l94.8,170.8c2.8,5,7.3,7.9,12.4,8.1c5.1,0.1,9.8-2.6,12.8-7.4l107.5-171.2
		C253.4,243.3,253.8,237.9,251.3,233.4"/>
	<path d="M357.6,246.3h47.9c-2.8,3.6-4.8,7.1-7.1,16l-15.3,61.5c-2.2,8.9-1.9,12.4-0.9,16.1h-41.7c2.7-3.7,4.7-7.2,6.9-16.1
		l14.4-57.7h-0.3l-44.3,73.8h-24.7l-6.8-73.8h-0.3l-14.2,57c-2.6,10.5-2.7,12.4-0.7,16.8H248c4.2-4.4,5.1-6.3,7.7-16.8l15-60
		c2.6-10.5,2.6-12.4,0.7-16.7h49.1l4.6,53h0.3L357.6,246.3z"/>
	<path d="M500.8,264.8c-3.9-1.9-6.8-3.1-13.7-3.1h-33.2c-5.6,0-7.1,0.7-7.9,4.1l-1.3,5.3c-0.9,3.5,0.3,4.1,5.9,4.1h25.3
		c15.2,0,22.1,5.3,18.7,18.8l-5.7,22.8c-3.7,14.8-11,23-28.1,23h-64.3l1.7-19c3.1,1.8,6.1,3.5,13.1,3.5h34.5c5.6,0,6.9-0.6,7.8-4.1
		l1.6-6.5c0.8-3.4-0.1-4.1-5.7-4.1h-29.1c-14.2,0-18.6-4.7-14.7-20.3l5.2-20.9c3.6-14.6,12.7-22.2,25.3-22.2h66.2L500.8,264.8z"/>
	<path d="M537.2,323.8c-2.2,8.9-1.9,12.4-1.1,16.1h-41.6c2.7-3.7,4.7-7.2,6.9-16.1l15.3-61.5c2.2-8.9,1.9-12.4,1.1-16.1h81l-1.7,18
		c-3.4-1.2-7.1-2.5-15.5-2.5h-29.1l-5.5,22.1h25.4c8.2,0,12.6-1.3,16.7-2.5l-5.1,20.5c-3.5-1.2-7.3-2.5-15.5-2.5h-25.4L537.2,323.8z
		"/>
	<path d="M89.3,263.5c0,0-16,20.7-16.3,52.1c0,0,1.7-29.9,18.8-49.1L89.3,263.5z"/>
	<path d="M90.8,275.1c0,0-0.3,7.2-5.4,10.4l9.8,7.2c0,0,3.8-0.6,2.3,2.4c0,0-12.7,10.6-20.1,10.7c0,0-1.4,1.1,0.4,1.1
		c1.9,0,5.2,1.3,23.7-2.8l-15.3,11.1c0,0,4.3,5.1,1,11.9c-1.4,3,6.8-5.7,27.4,13c0,0-6.3,4.7-6.6,7.1c-0.3,2.3-0.9,1.7,1,2.3
		c2,0.6,6.2-0.4,6.6,1.6c0.8,4.1-3.5,19.5-3.5,19.5s1.1,3,3.1,5.3c0,0,9.3,8.7,10.8,5.4c1.5-3.2,1.9-28.3,1.9-28.3
		s-0.2-10.4-1.4-13.1c-1.7-3.7-10.4-6.7-10.4-6.7s17.2-23.7,44-17.7c0,0,3.1,0.9,6.4-2.7l1.9-0.7c0,0,3.6-3.1-3.3-8.4
		c0,0-4.5,1-5.6,2.3l1.4-3.6c0,0-3.2-3.5-5,5c0,0-17.1,3.7-30.7,1.1l-2,2.7c0,0,4.5-0.7,5.5,1.2c0,0,2.2,2.7-1.3,4.5
		c-3.5,1.8-17.1,7.8-17.1,7.8l8.8-13.4c0,0,3.6,0.1,2.4-3.5c-1.2-3.6-12.1-11-12.1-11S99.8,300.6,90.8,275.1"/>
	<path d="M141.3,267.1c0,0-3.1-0.6-3.5,3.5c0,0,2.2,0.9,5.3,0.9l-0.8,3.2c0,0,3.3,15.1,5.9,18.5l3.6,2.7l-22.7,0.4l1-3.3
		c0,0-3.2-3.7-8.5-4.5l2.2-3.9c0,0-1.8-6.7-17.9-8.9c0,0,5.2-4.8,9-4.9c0,0,3-3.6-10.7-7.8c0,0-0.6-4.2,11.4-2.1
		c0,0,2.7,1.9,0.6-1.3c-0.8-1.2-8.5-3.5-10.5-3.7l-9.7,4.2c0,0-1.8,0.2,0.2-2.5c2.7-3.7,12.7-7,12.7-7s1.8-0.3,3.1,1.5
		c1.4,1.7,7.1,11.8,24.7,11.6c11.9-0.1,12.6-1.6,12.6-1.6l2-7.9l1.2,1.4l-2.1,9C150.4,264.7,145.2,266.6,141.3,267.1"/>
	<path d="M119.3,224.7c0.6-1.7,22.5-11,29.3,7.9l6.9,4.8l-8,0.4c0,0,0.8,5.8-1.5,13.2l-2.2,0c0,0-1.3-9.1-7.6-8.4c0,0-1.9-0.5-2,1.5
		c-0.2,1.9-0.9,5.9-0.9,5.9l-0.9,0.4c0,0-4.6-10.1-3.2-13.3c0,0-0.8-1.9,2.8-2.4c0,0,6.4-0.1,3.7-6.7
		C135.7,228,130.3,222.5,119.3,224.7"/>
	<path d="M130.7,345.3c0,0,12.2,14.7,41.4-7l4.2-4.6l-0.6-1.7l5.4-6.1c0,0,7.7-4.9,0.5-6.3c-1.4-0.3-8-3.1-8-3.1s-3.2-2.8-3.4,0.9
		c0,0,9.5,8.2-6.9,21.8C163.2,339.2,143.3,348.8,130.7,345.3"/>
	<path d="M191.5,308c0,0,1.9,4.4,4,0.4l-1.1-3.7l2.3-5.1c0,0-3.2,0.3-4.6-7.4c0,0-2.7-3.1-2.6,1.6c0.1,4.7-1.6,5.8-1.6,5.8l-2,0
		l-0.8,1.6l-2.5,1.3l0.5-2.8l-2.4-1.6l-5,9l0,1.5c0,0,4.4,5.1,10.1,5.7"/>
	<polygon points="156.7,277.8 164.8,284.6 164.8,286.7 166.8,286 183.4,294.4 167.1,288.6 162.7,290.1 162.6,285.3 	"/>
	<path d="M170.1,343.7c0,0-18.5,22.1-30.7,12.2C139.4,355.8,158.9,354.3,170.1,343.7"/>
	<path d="M131.9,361.9c0,0,26.1,12.3,19.5,26.6C151.4,388.4,144.3,369.6,131.9,361.9"/>
	<path class="st1" d="M251.3,233.4c-2.5-4.5-7.3-7.1-13.1-7.1h-86.7c0.4,0.7,0.8,1.5,1.2,2.3l5.2,4.3c1.9,1.5,2.6,4.1,1.7,6.3
		c-0.8,2.3-3,3.8-5.4,3.8l-1.4,0c0,0.8-0.1,1.6-0.2,2.5h76.8l-98.7,157.3c-15.1-27.3-72.1-129.9-87.3-157.3h65
		c-1.1-3.8-2.8-11.8,1-19.2H35.6c-5.7,0-10.5,2.5-13.1,6.9c-2.6,4.4-2.5,9.8,0.3,14.8l94.8,170.8c2.8,5,7.3,7.9,12.4,8.1
		c5.1,0.1,9.8-2.6,12.8-7.4l107.5-171.2C253.4,243.3,253.8,237.9,251.3,233.4"/>
	<path d="M281.9,356.1h12c-0.7,0.9-1.2,1.8-1.8,4l-3.8,15.4c-0.6,2.2-0.5,3.1-0.2,4h-10.5c0.7-0.9,1.2-1.8,1.7-4l3.6-14.5h-0.1
		l-11.1,18.5h-6.2l-1.7-18.5h-0.1l-3.6,14.3c-0.7,2.6-0.7,3.1-0.2,4.2h-5.7c1-1.1,1.3-1.6,1.9-4.2l3.8-15.1c0.7-2.6,0.7-3.1,0.2-4.2
		h12.3l1.2,13.3h0.1L281.9,356.1z"/>
	<path d="M300.7,374.2c-0.3,1.1,0.2,1.5,1.4,1.5h3.9c1.2,0,1.9-0.4,2.1-1.5l3.2-12.7c0.3-1.1-0.2-1.5-1.4-1.5H306
		c-1.2,0-1.9,0.4-2.1,1.5L300.7,374.2z M294.6,363c1.3-5.1,3.9-6.9,7.7-6.9h13.4c3.8,0,5.5,1.8,4.2,6.9l-2.4,9.7
		c-1.3,5.1-3.9,6.9-7.7,6.9h-13.5c-3.8,0-5.5-1.8-4.2-6.9L294.6,363z"/>
	<path d="M346.7,356.1l-0.5,4.8c-0.8-0.6-1.5-1-3.1-1H339l-3.9,15.6c-0.6,2.2-0.5,3.1-0.3,4h-10.4c0.7-0.9,1.2-1.8,1.7-4l3.9-15.6
		H326c-1.7,0-2.4,0.3-3.6,1l1.9-4.8H346.7z"/>
	<path d="M353.6,374.2c-0.3,1.1,0.2,1.5,1.4,1.5h3.9c1.2,0,1.9-0.4,2.1-1.5l3.2-12.7c0.3-1.1-0.2-1.5-1.4-1.5h-3.9
		c-1.2,0-1.9,0.4-2.1,1.5L353.6,374.2z M347.4,363c1.3-5.1,3.9-6.9,7.7-6.9h13.5c3.8,0,5.5,1.8,4.2,6.9l-2.4,9.7
		c-1.3,5.1-3.9,6.9-7.7,6.9h-13.5c-3.8,0-5.5-1.8-4.2-6.9L347.4,363z"/>
	<path d="M383.8,365.5h5.1c1.1,0,1.5-0.2,1.8-1.3l0.7-2.9c0.3-1.1,0-1.3-1.1-1.3h-5.1L383.8,365.5z M382.8,369.4l-1.5,6.2
		c-0.6,2.2-0.5,3.1-0.3,4h-10.4c0.7-0.9,1.2-1.8,1.7-4l3.8-15.4c0.6-2.2,0.5-3.1,0.1-4h19.3c4.1,0,5.8,1.3,4.8,5.2l-1.1,4.3
		c-0.9,3.5-2.6,3.6-4.5,3.8l1.5,6.6c0.4,1.5,0.5,2.7,1.1,3.6h-10l-1.7-10.2H382.8z"/>
	<path d="M423.6,360.6c-0.9-0.4-1.7-0.6-3.4-0.6h-6.4c-1.2,0-1.9,0.4-2.1,1.5l-3.2,12.7c-0.3,1.1,0.2,1.5,1.4,1.5h5.1
		c3.6,0,4.3-0.3,5.6-0.9l-2,4.8h-14.5c-3.8,0-5.5-1.8-4.2-6.9l2.4-9.7c1.3-5.1,3.9-6.9,7.7-6.9H424L423.6,360.6z"/>
	<path d="M431.7,370.4l-4.6-11.5c-0.7-1.9-0.9-2.1-1.5-2.9h12.1c-0.1,0.3-0.3,0.5-0.3,0.7c-0.2,0.8,0.3,1.9,0.5,2.7l2.5,6.4l5.7-6.5
		c1.1-1.3,1.4-2.3,1.7-3.3h6.7c-2.2,1.4-2.5,1.8-4,3.5l-9.9,11.4l-1.2,4.7c-0.6,2.2-0.5,3.1-0.3,4h-10.4c0.7-0.9,1.2-1.8,1.7-4
		L431.7,370.4z"/>
	<path d="M473.9,360.6c-0.9-0.4-1.7-0.6-3.4-0.6H464c-1.2,0-1.9,0.4-2.1,1.5l-3.2,12.7c-0.3,1.1,0.2,1.5,1.4,1.5h5.1
		c3.6,0,4.3-0.3,5.6-0.9l-2,4.8h-14.5c-3.8,0-5.5-1.8-4.2-6.9l2.4-9.7c1.3-5.1,3.9-6.9,7.7-6.9h14.1L473.9,360.6z"/>
	<path d="M489.4,375.7c1,0,2.9-0.1,4.1-0.8l-1.9,4.7h-20.3c0.7-0.9,1.2-1.8,1.7-4l3.8-15.4c0.6-2.2,0.5-3.1,0.3-4h10.4
		c-0.7,0.9-1.2,1.8-1.7,4l-3.9,15.6H489.4z"/>
	<path d="M512.3,375.7c2.1,0,3.2-0.3,4.2-0.6l-1.9,4.5h-20.7c0.7-0.9,1.2-1.8,1.7-4l3.8-15.4c0.6-2.2,0.5-3.1,0.3-4H520l-0.4,4.5
		c-0.9-0.3-1.8-0.6-3.9-0.6h-7.3l-1.4,5.5h6.4c2.1,0,3.2-0.3,4.2-0.6l-1.3,5.1c-0.9-0.3-1.8-0.6-3.9-0.6H506l-1.6,6.3H512.3z"/>
	<path d="M199,396.8c-1-0.5-1.7-0.8-3.4-0.8h-8.3c-1.4,0-1.8,0.2-2,1l-0.3,1.3c-0.2,0.9,0.1,1,1.5,1h6.4c3.8,0,5.6,1.3,4.7,4.7
		l-1.4,5.7c-0.9,3.7-2.8,5.8-7.1,5.8h-16.2l0.4-4.8c0.8,0.4,1.5,0.9,3.3,0.9h8.7c1.4,0,1.7-0.1,1.9-1l0.4-1.6c0.2-0.8,0-1-1.4-1
		h-7.3c-3.6,0-4.7-1.2-3.7-5.1l1.3-5.3c0.9-3.7,3.2-5.6,6.4-5.6h16.6L199,396.8z"/>
	<path d="M215.2,405.5l-1.4-7.9l-5.6,7.9H215.2z M204.2,409.3l-2.4,3.2c-0.3,0.4-0.6,0.9-0.7,1.4c-0.2,0.8-0.2,0.9,0.1,1.7h-6.7
		c1.8-1.8,2.5-2.5,3.7-4.3l13-17.9l-0.7-1.3h10.6l3.3,20.3c0.2,1.2,0.7,2.4,1.3,3.2H214c0.7-0.9,0.8-1,0.9-1.5
		c0.1-0.6,0.2-1.3,0.1-1.8l-0.5-3H204.2z"/>
	<path d="M237.8,411.6c-0.6,2.2-0.5,3.1-0.3,4h-10.4c0.7-0.9,1.2-1.8,1.7-4l3.8-15.4c0.6-2.2,0.5-3.1,0.3-4h20.4l-0.4,4.5
		c-0.8-0.3-1.8-0.6-3.9-0.6h-7.3l-1.4,5.5h6.4c2.1,0,3.2-0.3,4.2-0.6l-1.3,5.1c-0.9-0.3-1.8-0.6-3.9-0.6h-6.4L237.8,411.6z"/>
	<path d="M267.7,411.8c2.1,0,3.2-0.3,4.2-0.6l-1.9,4.5h-20.7c0.7-0.9,1.2-1.8,1.7-4l3.8-15.4c0.6-2.2,0.5-3.1,0.3-4h20.4l-0.4,4.5
		c-0.9-0.3-1.8-0.6-3.9-0.6h-7.3l-1.4,5.5h6.4c2.1,0,3.2-0.3,4.2-0.6l-1.3,5.1c-0.9-0.3-1.8-0.6-3.9-0.6h-6.4l-1.6,6.3H267.7z"/>
	<path d="M300.3,392.1l-0.5,4.8c-0.8-0.6-1.5-1-3.1-1h-4.1l-3.9,15.6c-0.6,2.2-0.5,3.1-0.3,4H278c0.7-0.9,1.2-1.8,1.7-4l3.9-15.6
		h-4.1c-1.7,0-2.4,0.3-3.6,1l1.9-4.8H300.3z"/>
	<path d="M307.4,406.5l-4.6-11.5c-0.7-1.9-0.9-2.1-1.5-2.9h12.1c-0.1,0.3-0.3,0.5-0.3,0.7c-0.2,0.8,0.3,1.9,0.5,2.7l2.5,6.4l5.7-6.5
		c1.1-1.3,1.4-2.3,1.7-3.3h6.7c-2.2,1.4-2.5,1.8-4,3.5l-9.9,11.4l-1.2,4.7c-0.6,2.2-0.5,3.1-0.3,4h-10.4c0.7-0.9,1.2-1.8,1.7-4
		L307.4,406.5z"/>
	<path d="M349.9,411.6c-0.6,2.2-0.5,3.1-0.3,4h-10.4c0.7-0.9,1.2-1.8,1.7-4l3.8-15.4c0.6-2.2,0.5-3.1,0.3-4h20.4l-0.4,4.5
		c-0.8-0.3-1.8-0.6-3.9-0.6h-7.3l-1.4,5.5h6.4c2.1,0,3.2-0.3,4.2-0.6l-1.3,5.1c-0.9-0.3-1.8-0.6-3.9-0.6h-6.4L349.9,411.6z"/>
	<path d="M372.9,410.3c-0.3,1.1,0.2,1.5,1.4,1.5h3.9c1.2,0,1.9-0.4,2.1-1.5l3.2-12.7c0.3-1.1-0.2-1.5-1.4-1.5h-3.9
		c-1.2,0-1.9,0.4-2.1,1.5L372.9,410.3z M366.7,399.1c1.3-5.1,3.9-6.9,7.7-6.9h13.4c3.8,0,5.5,1.8,4.2,6.9l-2.4,9.7
		c-1.3,5.1-3.9,6.9-7.7,6.9h-13.4c-3.8,0-5.5-1.8-4.2-6.9L366.7,399.1z"/>
	<path d="M410.1,411.8c2.5,0,2.7-0.3,3.3-2.4l3.3-13c0.7-2.6,0.7-3.1,0.2-4.2h5.7c-1.1,1.1-1.3,1.6-1.9,4.2l-3,12
		c-1.3,5.4-3.3,7.3-8.4,7.3h-11.9c-4.6,0-5.9-2.4-4.7-7.3l3-12.2c0.6-2.2,0.5-3.1,0.3-4h10.4c-0.7,0.9-1.2,1.8-1.7,4l-3.3,13.4
		c-0.4,1.5,0.1,2.2,1.7,2.2H410.1z"/>
	<path d="M427.8,396.2L427.8,396.2l-3.9,15.2c-0.7,2.6-0.7,3.1-0.2,4.2h-5.7c1-1.1,1.3-1.6,1.9-4.2l3.8-15.1
		c0.7-2.6,0.7-3.1,0.2-4.2h12.6l4.8,19.2h0.1l3.7-15c0.7-2.6,0.7-3.1,0.2-4.2h5.7c-1.1,1.1-1.3,1.6-1.9,4.2l-4.8,19.3h-11.6
		L427.8,396.2z"/>
	<path d="M458.2,411.8h4.7c1.5,0,1.8-0.3,2.2-1.9l3-11.9c0.4-1.6,0.3-1.9-1.2-1.9h-4.7L458.2,411.8z M453.1,396.2
		c0.6-2.2,0.5-3.1,0.3-4h18.3c5,0,6.3,1.9,5.1,6.7l-2.5,10.1c-1.2,4.8-3.4,6.7-8.4,6.7h-18.3c0.7-0.9,1.2-1.8,1.7-4L453.1,396.2z"/>
	<path d="M492.3,405.5l-1.4-7.9l-5.6,7.9H492.3z M482.5,409.3l-2.4,3.2c-0.3,0.4-0.6,0.9-0.7,1.4c-0.2,0.8-0.2,0.9,0.1,1.7h-6.7
		c1.8-1.8,2.5-2.5,3.7-4.3l13-17.9l-0.7-1.3h10.6l3.3,20.3c0.2,1.2,0.7,2.4,1.3,3.2h-11.8c0.7-0.9,0.8-1,0.9-1.5
		c0.1-0.6,0.2-1.3,0.1-1.8l-0.5-3H482.5z"/>
	<path d="M529.6,392.1l-0.5,4.8c-0.8-0.6-1.5-1-3.1-1H522l-3.9,15.6c-0.6,2.2-0.5,3.1-0.3,4h-10.4c0.7-0.9,1.2-1.8,1.7-4L513,396
		h-4.1c-1.7,0-2.4,0.3-3.6,1l1.9-4.8H529.6z"/>
	<path d="M526.4,415.7c0.7-0.9,1.2-1.8,1.7-4l3.8-15.4c0.6-2.2,0.5-3.1,0.3-4h10.4c-0.7,0.9-1.2,1.8-1.7,4l-3.8,15.4
		c-0.6,2.2-0.5,3.1-0.3,4H526.4z"/>
	<path d="M549.5,410.3c-0.3,1.1,0.2,1.5,1.4,1.5h3.9c1.2,0,1.9-0.4,2.1-1.5l3.2-12.7c0.3-1.1-0.2-1.5-1.4-1.5h-3.9
		c-1.2,0-1.9,0.4-2.1,1.5L549.5,410.3z M543.3,399.1c1.3-5.1,3.9-6.9,7.7-6.9h13.4c3.8,0,5.5,1.8,4.2,6.9l-2.4,9.7
		c-1.3,5.1-3.9,6.9-7.7,6.9h-13.4c-3.8,0-5.5-1.8-4.2-6.9L543.3,399.1z"/>
	<path d="M576.2,396.2L576.2,396.2l-3.9,15.2c-0.7,2.6-0.7,3.1-0.2,4.2h-5.7c1.1-1.1,1.3-1.6,1.9-4.2l3.8-15.1
		c0.7-2.6,0.7-3.1,0.2-4.2H585l4.8,19.2h0.1l3.7-15c0.7-2.6,0.7-3.1,0.2-4.2h5.7c-1,1.1-1.3,1.6-1.9,4.2l-4.8,19.3h-11.6
		L576.2,396.2z"/>
	<path d="M611.1,394.2v-2.8h1.9c1,0,2,0.2,2,1.3c0,1.4-1,1.5-2.2,1.5H611.1z M611.1,395.4h1.6l2.4,3.9h1.5l-2.6-4
		c1.3-0.2,2.4-0.9,2.4-2.5c0-1.8-1.1-2.6-3.2-2.6h-3.5v9.1h1.4V395.4z M612.7,402.7c4.3,0,8-3.3,8-7.9c0-4.5-3.7-7.9-8-7.9
		c-4.3,0-8,3.3-8,7.9C604.7,399.3,608.4,402.7,612.7,402.7 M606.3,394.8c0-3.7,2.8-6.5,6.4-6.5c3.6,0,6.4,2.8,6.4,6.5
		c0,3.8-2.8,6.6-6.4,6.6C609.1,401.4,606.3,398.6,606.3,394.8"/>
</g>
</svg>
